<?xml version="1.0" encoding="UTF-8" standalone="no"?>
<!-- Created with Inkscape (http://www.inkscape.org/) -->

<svg
        width="419.04819mm"
        height="100.1mm"
        viewBox="0 0 419.04818 100.1"
        version="1.1"
        id="svg5"
        xmlns="http://www.w3.org/2000/svg"
>
  <defs
     id="defs2">
    <rect
       x="458.90567"
       y="272.50494"
       width="1698.5909"
       height="85.345093"
       id="rect5066" />
    <rect
       x="400"
       y="1.0220447e-10"
       width="1380"
       height="380"
       id="rect65287" />
    <rect
       x="400"
       y="0"
       width="1480"
       height="360"
       id="rect48955" />
    <rect
       x="420"
       y="20"
       width="1418.4872"
       height="357.59293"
       id="rect31967" />
  </defs>
  <g
     id="layer1"
     style="display:inline">
    <circle
       style="display:inline;fill:#b5dbd8;fill-opacity:1;stroke-width:5.53611;stroke-linejoin:round"
       id="circle26197"
       cx="50"
       cy="50.099998"
       r="50" />
    <path
       id="path26297"
       style="display:inline;fill:#c5e3e0;fill-opacity:1;stroke-width:5.53612;stroke-linejoin:round"
       d="M 99.98976,50.819118 A 50,50 0 0 0 50.000048,1.099674 50,50 0 0 0 0.02067057,50.549886 50,50 0 0 1 0,50.000047 50,50 0 0 1 50.000048,0 50,50 0 0 1 100.0001,50.000047 50,50 0 0 1 99.98975,50.819118 Z" />
    <path
       id="path848"
       style="display:inline;fill:#a2d2ce;fill-opacity:1;stroke-width:20.9239;stroke-linejoin:round"
       d="M 377.91406,186.25781 A 188.97638,188.97638 0 0 1 188.97656,374.17383 188.97638,188.97638 0 0 1 0.078125,187.27539 188.97638,188.97638 0 0 0 0,189.35352 188.97638,188.97638 0 0 0 188.97656,378.33008 188.97638,188.97638 0 0 0 377.95312,189.35352 a 188.97638,188.97638 0 0 0 -0.0391,-3.09571 z"
       transform="scale(0.26458333)" />
    <g
       id="g72272"
       transform="rotate(28.496953,50.000048,50.000049)"
       style="stroke:#006d93;stroke-width:0.05;stroke-miterlimit:4;stroke-dasharray:none;stroke-opacity:0.5">
      <g
         id="g5146"
         style="display:inline;stroke:#006d93;stroke-width:0.05;stroke-miterlimit:4;stroke-dasharray:none;stroke-opacity:0.5">
        <path
           id="path1166-3"
           style="display:inline;fill:#048ba8;fill-opacity:1;stroke:#006d93;stroke-width:0.188976;stroke-linejoin:round;stroke-miterlimit:4;stroke-dasharray:none;stroke-opacity:0.5"
           d="m 377.95312,188.97656 a 75.590549,75.590549 0 0 1 -75.59179,75.58985 75.590549,75.590549 0 0 1 -50.42383,-19.39844 132.28346,132.28346 0 0 1 -63.07422,63.24805 132.28346,132.28346 0 0 0 56.80664,12.84375 132.28346,132.28346 0 0 0 132.2832,-132.28321 z"
           transform="scale(0.26458333)" />
        <path
           id="path1084-6"
           style="display:inline;fill:#2c699a;fill-opacity:1;stroke:#006d93;stroke-width:0.188976;stroke-linejoin:round;stroke-miterlimit:4;stroke-dasharray:none;stroke-opacity:0.5"
           d="m 377.95312,188.97656 a 75.590549,75.590549 0 0 1 -75.59179,75.58985 75.590549,75.590549 0 0 1 -50.55274,-19.51563 132.28346,132.28346 0 0 1 -35.95898,46.21094 113.38583,113.38583 0 0 0 48.7168,11.09961 113.38583,113.38583 0 0 0 113.38671,-113.38477 z"
           transform="scale(0.26458333)" />
        <path
           id="path1408-7"
           style="display:inline;fill:#54478c;fill-opacity:1;stroke:#006d93;stroke-width:0.188976;stroke-linejoin:round;stroke-miterlimit:4;stroke-dasharray:none;stroke-opacity:0.5"
           d="m 377.95312,188.97656 a 75.590549,75.590549 0 0 1 -75.59179,75.58985 75.590549,75.590549 0 0 1 -50.52735,-19.49219 132.28346,132.28346 0 0 1 -15.81836,25.60156 94.488187,94.488187 0 0 0 47.44922,12.78906 94.488187,94.488187 0 0 0 94.48828,-94.48828 z"
           transform="scale(0.26458333)" />
        <path
           id="path1512-2"
           style="display:inline;fill:#2c699a;fill-opacity:1;stroke:#006d93;stroke-width:0.188976;stroke-linejoin:round;stroke-miterlimit:4;stroke-dasharray:none;stroke-opacity:0.5"
           d="m 264.56641,188.97656 a 132.28346,132.28346 0 0 1 -12.60938,56.21094 75.590549,75.590549 0 0 0 50.4043,19.37891 75.590549,75.590549 0 0 0 75.33008,-70.25196 56.692911,56.692911 0 0 1 -56.43164,51.35547 56.692911,56.692911 0 0 1 -56.69336,-56.69336 z"
           transform="scale(0.26458333)" />
      </g>
      <g
         id="g6558"
         style="display:inline;stroke:#006d93;stroke-width:0.05;stroke-miterlimit:4;stroke-dasharray:none;stroke-opacity:0.5">
        <path
           id="path1166"
           style="display:inline;fill:#f1c453;fill-opacity:1;stroke:#006d93;stroke-width:0.188976;stroke-linejoin:round;stroke-miterlimit:4;stroke-dasharray:none;stroke-opacity:0.5"
           d="M 132.2832,56.693359 A 132.28346,132.28346 0 0 0 0,188.97656 56.692911,56.692911 0 0 1 56.693359,132.2832 56.692911,56.692911 0 0 1 113.38672,188.97656 132.28346,132.28346 0 0 1 189.08789,69.535156 132.28346,132.28346 0 0 0 132.2832,56.693359 Z"
           transform="scale(0.26458333)" />
        <path
           id="path1084"
           style="display:inline;fill:#f29e4c;fill-opacity:1;stroke:#006d93;stroke-width:0.188976;stroke-linejoin:round;stroke-miterlimit:4;stroke-dasharray:none;stroke-opacity:0.5"
           d="M 113.38672,75.589844 A 113.38583,113.38583 0 0 0 0,188.97656 56.692911,56.692911 0 0 1 56.693359,132.2832 56.692911,56.692911 0 0 1 113.38672,188.97656 132.28346,132.28346 0 0 1 162.17578,86.628906 113.38583,113.38583 0 0 0 113.38672,75.589844 Z"
           transform="scale(0.26458333)" />
        <path
           id="path1408"
           style="display:inline;fill:#f1c453;fill-opacity:1;stroke:#006d93;stroke-width:0.188976;stroke-linejoin:round;stroke-miterlimit:4;stroke-dasharray:none;stroke-opacity:0.5"
           d="M 94.488281,94.488281 A 94.488187,94.488187 0 0 0 0,188.97656 56.692911,56.692911 0 0 1 56.693359,132.2832 56.692911,56.692911 0 0 1 113.38672,188.97656 132.28346,132.28346 0 0 1 141.9375,107.27734 94.488187,94.488187 0 0 0 94.488281,94.488281 Z"
           transform="scale(0.26458333)" />
        <path
           id="path1512"
           style="display:inline;fill:#efea5a;fill-opacity:1;stroke:#006d93;stroke-width:0.188976;stroke-linejoin:round;stroke-miterlimit:4;stroke-dasharray:none;stroke-opacity:0.5"
           d="M 75.589844,113.38672 A 75.590549,75.590549 0 0 0 0,188.97656 56.692911,56.692911 0 0 1 56.693359,132.2832 a 56.692911,56.692911 0 0 1 56.693361,56.69336 132.28346,132.28346 0 0 1 12.60937,-56.21094 75.590549,75.590549 0 0 0 -50.406246,-19.3789 z"
           transform="scale(0.26458333)" />
      </g>
      <g
         id="g3439"
         transform="translate(-51.904326,8.8074715)"
         style="display:inline;stroke:#006d93;stroke-width:0.05;stroke-miterlimit:4;stroke-dasharray:none;stroke-opacity:0.5">
        <path
           id="circle5148-1"
           style="display:inline;fill:#2c699a;fill-opacity:1;stroke:#006d93;stroke-width:0.188976;stroke-linejoin:round;stroke-miterlimit:4;stroke-dasharray:none;stroke-opacity:0.5"
           d="m 236.12305,107.20703 a 94.488187,94.488187 0 0 0 -26.22852,22.55664 113.38583,113.38583 0 0 1 16.87695,59.21289 75.590549,75.590549 0 0 1 25.04102,-56.15625 132.28346,132.28346 0 0 1 6.83594,17.59766 132.28346,132.28346 0 0 0 -22.52539,-43.21094 z m 22.52539,43.21094 a 132.28346,132.28346 0 0 1 0.29101,0.96484 132.28346,132.28346 0 0 0 -0.29101,-0.96484 z m 0.29101,0.96484 a 132.28346,132.28346 0 0 1 2.16602,8.14649 132.28346,132.28346 0 0 0 -2.16602,-8.14649 z m 2.16602,8.14649 a 132.28346,132.28346 0 0 1 0.45508,2.14062 132.28346,132.28346 0 0 0 -0.45508,-2.14062 z m 0.45508,2.14062 a 132.28346,132.28346 0 0 1 1.4082,7.45117 132.28346,132.28346 0 0 0 -1.4082,-7.45117 z m 1.4082,7.45117 a 132.28346,132.28346 0 0 1 0.42969,3.39453 132.28346,132.28346 0 0 0 -0.42969,-3.39453 z m 0.42969,3.39453 a 132.28346,132.28346 0 0 1 0.73633,6.4336 132.28346,132.28346 0 0 0 -0.73633,-6.4336 z m 0.73633,6.4336 a 132.28346,132.28346 0 0 1 0.43164,10.03125 132.28346,132.28346 0 0 0 -0.43164,-10.03125 z m 0.43164,10.03125 a 132.28346,132.28346 0 0 1 -0.43164,10.00195 132.28346,132.28346 0 0 0 0.43164,-10.00195 z m -0.43164,10.00195 a 132.28346,132.28346 0 0 1 -0.7461,6.53906 132.28346,132.28346 0 0 0 0.7461,-6.53906 z m -0.7461,6.53906 a 132.28346,132.28346 0 0 1 -0.41992,3.30469 132.28346,132.28346 0 0 0 0.41992,-3.30469 z m -0.41992,3.30469 a 132.28346,132.28346 0 0 1 -1.42773,7.54297 132.28346,132.28346 0 0 0 1.42773,-7.54297 z m -1.42773,7.54297 a 132.28346,132.28346 0 0 1 -0.42774,2.01172 132.28346,132.28346 0 0 0 0.42774,-2.01172 z m -0.42774,2.01172 a 132.28346,132.28346 0 0 1 -2.1875,8.22852 132.28346,132.28346 0 0 0 2.1875,-8.22852 z m -2.1875,8.22852 a 132.28346,132.28346 0 0 1 -0.27344,0.90039 132.28346,132.28346 0 0 0 0.27344,-0.90039 z m -0.27344,0.90039 a 132.28346,132.28346 0 0 1 -6.84375,17.62109 75.590549,75.590549 0 0 1 -25.03711,-56.15039 113.38583,113.38583 0 0 1 -16.90625,59.17383 94.488187,94.488187 0 0 0 26.25586,22.58789 132.28346,132.28346 0 0 0 22.53125,-43.23242 z m -49.00195,-97.46289 a 94.488187,94.488187 0 0 0 -5.91211,8.25195 94.488188,94.488188 0 0 1 5.91211,-8.25195 z m -6.41406,9.125 a 94.488187,94.488187 0 0 0 -4.3418,7.79101 94.488188,94.488188 0 0 1 4.3418,-7.79101 z m -5.60156,10.55078 a 94.488187,94.488187 0 0 0 -2.67579,6.40625 94.488188,94.488188 0 0 1 2.67579,-6.40625 z m -3.82227,9.72265 a 94.488187,94.488187 0 0 0 -1.83008,6.29883 94.488188,94.488188 0 0 1 1.83008,-6.29883 z m -2.66992,9.76758 a 94.488187,94.488187 0 0 0 -1.16602,6.80664 94.488188,94.488188 0 0 1 1.16602,-6.80664 z m -1.60156,9.8457 a 94.488187,94.488187 0 0 0 -0.56446,9.91797 94.488188,94.488188 0 0 1 0.56446,-9.91797 z m -0.56446,9.91797 a 94.488187,94.488187 0 0 0 0.56055,9.90235 94.488188,94.488188 0 0 1 -0.56055,-9.90235 z m 1.00586,12.98828 a 94.488187,94.488187 0 0 0 1.1543,6.75196 94.488188,94.488188 0 0 1 -1.1543,-6.75196 z m 2.00196,10.25 a 94.488187,94.488187 0 0 0 1.81835,6.25977 94.488188,94.488188 0 0 1 -1.81835,-6.25977 z m 2.97656,9.60938 a 94.488187,94.488187 0 0 0 2.64648,6.34375 94.488188,94.488188 0 0 1 -2.64648,-6.34375 z m 3.93164,9.16406 a 94.488187,94.488187 0 0 0 4.23242,7.5957 94.488188,94.488188 0 0 1 -4.23242,-7.5957 z m 4.8457,8.66211 a 94.488187,94.488187 0 0 0 5.88086,8.21875 94.488188,94.488188 0 0 1 -5.88086,-8.21875 z"
           transform="matrix(0.26458333,0,0,0.26458333,51.904326,-8.8074715)" />
        <path
           id="circle5150-8"
           style="display:inline;fill:#54478c;fill-opacity:1;stroke:#006d93;stroke-width:0.188976;stroke-linejoin:round;stroke-miterlimit:4;stroke-dasharray:none;stroke-opacity:0.5"
           d="m 209.87695,129.73047 a 94.488189,94.488189 0 0 0 -20.90039,59.24609 94.488189,94.488189 0 0 0 20.8711,59.21094 113.38583,113.38583 0 0 0 16.92382,-59.20703 113.38583,113.38583 0 0 0 -16.89453,-59.25 z"
           transform="matrix(0.26458333,0,0,0.26458333,51.904326,-8.8074715)" />
        <path
           id="path7774"
           style="display:inline;fill:#0db39e;fill-opacity:1;stroke:#006d93;stroke-width:0.188976;stroke-linejoin:round;stroke-miterlimit:4;stroke-dasharray:none;stroke-opacity:0.5"
           d="m 251.8125,132.82031 a 75.590551,75.590551 0 0 0 -25.04102,56.15625 75.590551,75.590551 0 0 0 25.03711,56.1543 132.28346,132.28346 0 0 0 12.75782,-56.15039 132.28346,132.28346 0 0 0 -12.75391,-56.16016 z"
           transform="matrix(0.26458333,0,0,0.26458333,51.904326,-8.8074715)" />
      </g>
      <g
         id="g5751"
         style="display:inline;stroke:#006d93;stroke-width:0.05;stroke-miterlimit:4;stroke-dasharray:none;stroke-opacity:0.5"
         transform="translate(-0.16019701)">
        <path
           id="circle5148"
           style="display:inline;fill:#048ba8;fill-opacity:1;stroke:#006d93;stroke-width:0.05;stroke-linejoin:round;stroke-miterlimit:4;stroke-dasharray:none;stroke-opacity:0.5"
           d="M 50.160245,50.000048 A 24.999999,24.999999 0 0 1 44.60658,65.672477 30,30 0 0 0 57.283325,77.089867 34.999998,34.999998 0 0 0 62.629768,71.629735 24.999999,24.999999 0 0 1 50.160245,50.000048 Z m -9.826273,3.06493 a 30,30 0 0 0 0.15813,1.131713 30,30 0 0 1 -0.15813,-1.131713 z m 0.481623,3.024622 a 30,30 0 0 0 0.311611,1.328599 30,30 0 0 1 -0.311611,-1.328599 z m 0.786517,2.967775 a 30,30 0 0 0 0.454752,1.364777 30,30 0 0 1 -0.454752,-1.364777 z m 1.099158,2.911967 a 30,30 0 0 0 0.883666,1.865003 30,30 0 0 1 -0.883666,-1.865003 z" />
        <path
           id="circle5150"
           style="display:inline;fill:#49769e;fill-opacity:1;stroke:#006d93;stroke-width:0.05;stroke-linejoin:round;stroke-miterlimit:4;stroke-dasharray:none;stroke-opacity:0.5"
           d="m 50.160245,50.000048 a 24.999998,24.999998 0 0 1 -5.542296,15.657959 30,30 0 0 0 5.502505,6.648172 30,30 0 0 0 5.581573,-6.679694 24.999999,24.999999 0 0 1 -5.541782,-15.626437 z m -9.839709,3.011704 a 30,30 0 0 0 0.03721,0.31781 30,30 0 0 1 -0.03721,-0.31781 z m 0.464571,3.0055 a 30,30 0 0 0 0.0894,0.42478 30,30 0 0 1 -0.0894,-0.42478 z m 0.787548,3.01997 a 30,30 0 0 0 0.112655,0.365868 30,30 0 0 1 -0.112655,-0.365868 z m 1.136365,3.024621 a 30,30 0 0 0 0.199988,0.428398 30,30 0 0 1 -0.199988,-0.428398 z m 1.352888,2.685624 a 30,30 0 0 0 0.319879,0.548288 30,30 0 0 1 -0.319879,-0.548288 z" />
      </g>
      <g
         id="g2903"
         style="display:inline;stroke:#006d93;stroke-width:0.05;stroke-miterlimit:4;stroke-dasharray:none;stroke-opacity:0.5">
        <path
           id="path2899"
           style="display:inline;fill:#83e377;fill-opacity:1;stroke:#006d93;stroke-width:0.188976;stroke-linejoin:round;stroke-miterlimit:4;stroke-dasharray:none;stroke-opacity:0.5"
           d="m 215.91211,86.582031 a 113.38583,113.38583 0 0 0 -47.92773,43.162109 94.488186,94.488186 0 0 1 20.99218,59.23242 94.488187,94.488187 0 0 1 47.13672,-81.75781 132.28346,132.28346 0 0 0 -20.20117,-20.636719 z m -51.45117,49.501949 a 113.38583,113.38583 0 0 0 -3.69532,7.70118 113.38583,113.38583 0 0 1 3.69532,-7.70118 z m -6.10938,13.5 a 113.38583,113.38583 0 0 0 -1.71289,5.13086 113.38583,113.38583 0 0 1 1.71289,-5.13086 z m -3.51953,11.36914 a 113.38583,113.38583 0 0 0 -1.17578,5.00977 113.38583,113.38583 0 0 1 1.17578,-5.00977 z m -2.39453,12.14844 a 113.38583,113.38583 0 0 0 -0.59961,4.29297 113.38583,113.38583 0 0 1 0.59961,-4.29297 z"
           transform="scale(0.26458333)" />
        <path
           id="path2901"
           style="display:inline;fill:#16db93;fill-opacity:1;stroke:#006d93;stroke-width:0.188976;stroke-linejoin:round;stroke-miterlimit:4;stroke-dasharray:none;stroke-opacity:0.5"
           d="m 188.88086,104.62305 a 113.38583,113.38583 0 0 0 -20.85352,25.17578 94.488184,94.488184 0 0 1 20.94922,59.17773 94.488187,94.488187 0 0 1 20.97852,-59.10351 113.38583,113.38583 0 0 0 -21.07422,-25.25 z m -21.73828,26.53515 a 113.38583,113.38583 0 0 0 -1.1836,2.02735 113.38583,113.38583 0 0 1 1.1836,-2.02735 z m -5.56641,10.59766 a 113.38583,113.38583 0 0 0 -0.74219,1.58789 113.38583,113.38583 0 0 1 0.74219,-1.58789 z m -4.6289,11.67578 a 113.38583,113.38583 0 0 0 -0.41016,1.32813 113.38583,113.38583 0 0 1 0.41016,-1.32813 z m -3.0625,11.18164 a 113.38583,113.38583 0 0 0 -0.33789,1.60547 113.38583,113.38583 0 0 1 0.33789,-1.60547 z m -1.95704,11.77344 a 113.38583,113.38583 0 0 0 -0.14062,1.20898 113.38583,113.38583 0 0 1 0.14062,-1.20898 z"
           transform="scale(0.26458333)" />
      </g>
      <path
         id="circle5152-6"
         style="display:inline;fill:#0db39e;fill-opacity:1;stroke:#006d93;stroke-width:0.05;stroke-linejoin:round;stroke-miterlimit:4;stroke-dasharray:none;stroke-opacity:0.5"
         d="m 44.443282,34.32452 a 30,30 0 0 0 -4.44314,15.675528 30,30 0 0 0 4.443656,15.676046 24.999999,24.999999 0 0 0 5.55625,-15.676046 24.999999,24.999999 0 0 0 -5.556766,-15.675528 z" />
      <path
         id="path7530"
         style="display:inline;fill:#b9e769;fill-opacity:1;stroke:#006d93;stroke-width:0.05;stroke-linejoin:round;stroke-miterlimit:4;stroke-dasharray:none;stroke-opacity:0.5"
         d="M 33.349903,35.111033 A 34.999998,34.999998 0 0 0 30.000236,50.000048 34.999998,34.999998 0 0 0 33.340085,64.869424 20,20 0 0 0 40.000142,50.000048 20,20 0 0 0 33.349903,35.111033 Z" />
      <g
         id="g10285"
         style="stroke:#006d93;stroke-width:0.05;stroke-miterlimit:4;stroke-dasharray:none;stroke-opacity:0.5">
        <path
           id="path10120"
           style="display:inline;fill:#83e377;fill-opacity:1;stroke:#006d93;stroke-width:0.188976;stroke-linejoin:round;stroke-miterlimit:4;stroke-dasharray:none;stroke-opacity:0.5"
           d="m 151.18164,188.97656 a 75.59055,75.59055 0 0 1 -25.2168,56.07813 132.28346,132.28346 0 0 0 63.12696,63.36133 132.28346,132.28346 0 0 0 27.00781,-17.16797 113.38583,113.38583 0 0 1 -64.91797,-102.27149 z"
           transform="scale(0.26458333)" />
        <path
           id="path9476"
           style="display:inline;fill:#0db39e;fill-opacity:1;stroke:#006d93;stroke-width:0.188976;stroke-linejoin:round;stroke-miterlimit:4;stroke-dasharray:none;stroke-opacity:0.5"
           d="m 167.98828,248.06055 a 94.488188,94.488188 0 0 1 -26.26172,22.5039 132.28346,132.28346 0 0 0 47.36524,37.85157 132.28346,132.28346 0 0 0 27.00781,-17.16797 113.38583,113.38583 0 0 1 -48.11133,-43.1875 z"
           transform="scale(0.26458333)" />
        <path
           id="path9889"
           style="display:inline;fill:#16db93;fill-opacity:1;stroke:#006d93;stroke-width:0.188976;stroke-linejoin:round;stroke-miterlimit:4;stroke-dasharray:none;stroke-opacity:0.5"
           d="m 188.96289,273.18555 a 113.38583,113.38583 0 0 1 -26.99609,17.98633 132.28346,132.28346 0 0 0 27.125,17.24414 132.28346,132.28346 0 0 0 27.00781,-17.16797 113.38583,113.38583 0 0 1 -27.13672,-18.0625 z"
           transform="scale(0.26458333)" />
      </g>
      <g
         id="g10293"
         style="stroke:#006d93;stroke-width:0.05;stroke-miterlimit:4;stroke-dasharray:none;stroke-opacity:0.5">
        <path
           id="path10287"
           style="display:inline;fill:#f29e4c;fill-opacity:1;stroke:#006d93;stroke-width:0.188976;stroke-linejoin:round;stroke-miterlimit:4;stroke-dasharray:none;stroke-opacity:0.5"
           d="m 189.10742,69.527344 a 132.28346,132.28346 0 0 0 -63.06445,63.195316 75.59055,75.59055 0 0 1 25.13867,56.2539 113.38583,113.38583 0 0 1 64.96289,-102.292966 132.28346,132.28346 0 0 0 -27.03711,-17.15625 z"
           transform="scale(0.26458333)" />
        <path
           id="path10289"
           style="display:inline;fill:#83e377;fill-opacity:1;stroke:#006d93;stroke-width:0.188976;stroke-linejoin:round;stroke-miterlimit:4;stroke-dasharray:none;stroke-opacity:0.5"
           d="m 189.10742,69.527344 a 132.28346,132.28346 0 0 0 -47.26562,37.710936 94.488188,94.488188 0 0 1 26.23828,22.5 113.38583,113.38583 0 0 1 48.06445,-43.054686 132.28346,132.28346 0 0 0 -27.03711,-17.15625 z"
           transform="scale(0.26458333)" />
        <path
           id="path10291"
           style="display:inline;fill:#b9e769;fill-opacity:1;stroke:#006d93;stroke-width:0.188976;stroke-linejoin:round;stroke-miterlimit:4;stroke-dasharray:none;stroke-opacity:0.5"
           d="M 189.10742,69.527344 A 132.28346,132.28346 0 0 0 162.15625,86.625 a 113.38583,113.38583 0 0 1 26.9668,18.00391 113.38583,113.38583 0 0 1 27.02148,-17.945316 132.28346,132.28346 0 0 0 -27.03711,-17.15625 z"
           transform="scale(0.26458333)" />
      </g>
    </g>
    <g
       id="g25590"
       transform="translate(0,4.9690883)">
      <text
         xml:space="preserve"
         transform="matrix(0.26458333,0,0,0.26458333,-23.283342,-2.8564121)"
         id="text65285"
         style="font-size:264px;line-height:1.25;font-family:'Jost*';-inkscape-font-specification:'Jost*';letter-spacing:0px;word-spacing:0px;white-space:pre;shape-inside:url(#rect65287);fill:#1e1e1e;fill-opacity:1"
         x="550.26636"
         y="0"><tspan
           x="534.14895"
           y="228.48789"
           id="tspan1055"><tspan
             style="font-weight:500;-inkscape-font-specification:'Jost* Medium';text-align:center;text-anchor:middle"
             id="tspan1053">BOOMER</tspan></tspan></text>
      <text
         xml:space="preserve"
         transform="matrix(0.26458333,0,0,0.26458333,2.2259822,-1.1541691e-6)"
         id="text5064"
         style="font-size:50.6667px;line-height:1.25;font-family:'Jost*';-inkscape-font-specification:'Jost*';letter-spacing:0px;word-spacing:0px;white-space:pre;shape-inside:url(#rect5066);fill:#1e1e1e;fill-opacity:1"><tspan
           x="458.90625"
           y="316.3571"
           id="tspan1059"><tspan
             style="font-weight:500;-inkscape-font-specification:'Jost* Medium'"
             id="tspan1057">Gradient Boosted Multi-Label Classification Rules</tspan></tspan></text>
      <path
         style="fill:none;stroke:#1e1e1e;stroke-width:1.5;stroke-linecap:butt;stroke-linejoin:miter;stroke-miterlimit:4;stroke-dasharray:none;stroke-opacity:1"
         d="M 116.20723,66.113946 419.04695,65.617083"
         id="path25487" />
    </g>
  </g>
</svg>
