<?xml version="1.0" encoding="UTF-8" standalone="no"?>
<!-- Created with Inkscape (http://www.inkscape.org/) -->

<svg
   width="500mm"
   height="119.43734mm"
   viewBox="0 0 499.99999 119.43735"
   version="1.1"
   id="svg5"
   xmlns="http://www.w3.org/2000/svg"
   xmlns:svg="http://www.w3.org/2000/svg">
  <defs
     id="defs2">
    <rect
       x="458.90567"
       y="272.50494"
       width="1698.5909"
       height="85.345093"
       id="rect5066" />
    <rect
       x="400"
       y="1.0220447e-10"
       width="1380"
       height="380"
       id="rect65287-3" />
  </defs>
  <g
     id="layer1"
     style="display:inline">
    <g
       id="g25590"
       transform="translate(-0.52916663,4.9690883)">
      <g
         id="g1073"
         transform="translate(40.740493,9.6686707)">
        <circle
           style="display:inline;fill:#b5dbd8;fill-opacity:1;stroke-width:5.53611;stroke-linejoin:round"
           id="circle26197"
           cx="50"
           cy="50.099998"
           r="50"
           transform="translate(0.52916663,-4.9690883)" />
        <path
           id="path26297"
           style="display:inline;fill:#c5e3e0;fill-opacity:1;stroke-width:5.53612;stroke-linejoin:round"
           d="M 99.98976,50.819118 A 50,50 0 0 0 50.000048,1.099674 50,50 0 0 0 0.02067057,50.549886 50,50 0 0 1 0,50.000047 50,50 0 0 1 50.000048,0 50,50 0 0 1 100.0001,50.000047 50,50 0 0 1 99.98975,50.819118 Z"
           transform="translate(0.52916663,-4.9690883)" />
        <path
           id="path848"
           style="display:inline;fill:#a2d2ce;fill-opacity:1;stroke-width:20.9239;stroke-linejoin:round"
           d="M 377.91406,186.25781 A 188.97638,188.97638 0 0 1 188.97656,374.17383 188.97638,188.97638 0 0 1 0.078125,187.27539 188.97638,188.97638 0 0 0 0,189.35352 188.97638,188.97638 0 0 0 188.97656,378.33008 188.97638,188.97638 0 0 0 377.95312,189.35352 a 188.97638,188.97638 0 0 0 -0.0391,-3.09571 z"
           transform="matrix(0.26458333,0,0,0.26458333,0.52916663,-4.9690883)" />
        <g
           id="g72272"
           transform="rotate(28.496952,60.048639,48.557421)"
           style="display:inline;stroke:#006d93;stroke-width:0.05;stroke-miterlimit:4;stroke-dasharray:none;stroke-opacity:0.5">
          <g
             id="g5146"
             style="display:inline;stroke:#006d93;stroke-width:0.05;stroke-miterlimit:4;stroke-dasharray:none;stroke-opacity:0.5">
            <path
               id="path1166-3"
               style="display:inline;fill:#048ba8;fill-opacity:1;stroke:#006d93;stroke-width:0.188976;stroke-linejoin:round;stroke-miterlimit:4;stroke-dasharray:none;stroke-opacity:0.5"
               d="m 377.95312,188.97656 a 75.590549,75.590549 0 0 1 -75.59179,75.58985 75.590549,75.590549 0 0 1 -50.42383,-19.39844 132.28346,132.28346 0 0 1 -63.07422,63.24805 132.28346,132.28346 0 0 0 56.80664,12.84375 132.28346,132.28346 0 0 0 132.2832,-132.28321 z"
               transform="scale(0.26458333)" />
            <path
               id="path1084-6"
               style="display:inline;fill:#2c699a;fill-opacity:1;stroke:#006d93;stroke-width:0.188976;stroke-linejoin:round;stroke-miterlimit:4;stroke-dasharray:none;stroke-opacity:0.5"
               d="m 377.95312,188.97656 a 75.590549,75.590549 0 0 1 -75.59179,75.58985 75.590549,75.590549 0 0 1 -50.55274,-19.51563 132.28346,132.28346 0 0 1 -35.95898,46.21094 113.38583,113.38583 0 0 0 48.7168,11.09961 113.38583,113.38583 0 0 0 113.38671,-113.38477 z"
               transform="scale(0.26458333)" />
            <path
               id="path1408-7"
               style="display:inline;fill:#54478c;fill-opacity:1;stroke:#006d93;stroke-width:0.188976;stroke-linejoin:round;stroke-miterlimit:4;stroke-dasharray:none;stroke-opacity:0.5"
               d="m 377.95312,188.97656 a 75.590549,75.590549 0 0 1 -75.59179,75.58985 75.590549,75.590549 0 0 1 -50.52735,-19.49219 132.28346,132.28346 0 0 1 -15.81836,25.60156 94.488187,94.488187 0 0 0 47.44922,12.78906 94.488187,94.488187 0 0 0 94.48828,-94.48828 z"
               transform="scale(0.26458333)" />
            <path
               id="path1512-2"
               style="display:inline;fill:#2c699a;fill-opacity:1;stroke:#006d93;stroke-width:0.188976;stroke-linejoin:round;stroke-miterlimit:4;stroke-dasharray:none;stroke-opacity:0.5"
               d="m 264.56641,188.97656 a 132.28346,132.28346 0 0 1 -12.60938,56.21094 75.590549,75.590549 0 0 0 50.4043,19.37891 75.590549,75.590549 0 0 0 75.33008,-70.25196 56.692911,56.692911 0 0 1 -56.43164,51.35547 56.692911,56.692911 0 0 1 -56.69336,-56.69336 z"
               transform="scale(0.26458333)" />
          </g>
          <g
             id="g6558"
             style="display:inline;stroke:#006d93;stroke-width:0.05;stroke-miterlimit:4;stroke-dasharray:none;stroke-opacity:0.5">
            <path
               id="path1166"
               style="display:inline;fill:#f1c453;fill-opacity:1;stroke:#006d93;stroke-width:0.188976;stroke-linejoin:round;stroke-miterlimit:4;stroke-dasharray:none;stroke-opacity:0.5"
               d="M 132.2832,56.693359 A 132.28346,132.28346 0 0 0 0,188.97656 56.692911,56.692911 0 0 1 56.693359,132.2832 56.692911,56.692911 0 0 1 113.38672,188.97656 132.28346,132.28346 0 0 1 189.08789,69.535156 132.28346,132.28346 0 0 0 132.2832,56.693359 Z"
               transform="scale(0.26458333)" />
            <path
               id="path1084"
               style="display:inline;fill:#f29e4c;fill-opacity:1;stroke:#006d93;stroke-width:0.188976;stroke-linejoin:round;stroke-miterlimit:4;stroke-dasharray:none;stroke-opacity:0.5"
               d="M 113.38672,75.589844 A 113.38583,113.38583 0 0 0 0,188.97656 56.692911,56.692911 0 0 1 56.693359,132.2832 56.692911,56.692911 0 0 1 113.38672,188.97656 132.28346,132.28346 0 0 1 162.17578,86.628906 113.38583,113.38583 0 0 0 113.38672,75.589844 Z"
               transform="scale(0.26458333)" />
            <path
               id="path1408"
               style="display:inline;fill:#f1c453;fill-opacity:1;stroke:#006d93;stroke-width:0.188976;stroke-linejoin:round;stroke-miterlimit:4;stroke-dasharray:none;stroke-opacity:0.5"
               d="M 94.488281,94.488281 A 94.488187,94.488187 0 0 0 0,188.97656 56.692911,56.692911 0 0 1 56.693359,132.2832 56.692911,56.692911 0 0 1 113.38672,188.97656 132.28346,132.28346 0 0 1 141.9375,107.27734 94.488187,94.488187 0 0 0 94.488281,94.488281 Z"
               transform="scale(0.26458333)" />
            <path
               id="path1512"
               style="display:inline;fill:#efea5a;fill-opacity:1;stroke:#006d93;stroke-width:0.188976;stroke-linejoin:round;stroke-miterlimit:4;stroke-dasharray:none;stroke-opacity:0.5"
               d="M 75.589844,113.38672 A 75.590549,75.590549 0 0 0 0,188.97656 56.692911,56.692911 0 0 1 56.693359,132.2832 a 56.692911,56.692911 0 0 1 56.693361,56.69336 132.28346,132.28346 0 0 1 12.60937,-56.21094 75.590549,75.590549 0 0 0 -50.406246,-19.3789 z"
               transform="scale(0.26458333)" />
          </g>
          <g
             id="g3439"
             transform="translate(-51.904326,8.8074715)"
             style="display:inline;stroke:#006d93;stroke-width:0.05;stroke-miterlimit:4;stroke-dasharray:none;stroke-opacity:0.5">
            <path
               id="circle5148-1"
               style="display:inline;fill:#2c699a;fill-opacity:1;stroke:#006d93;stroke-width:0.188976;stroke-linejoin:round;stroke-miterlimit:4;stroke-dasharray:none;stroke-opacity:0.5"
               d="m 236.12305,107.20703 a 94.488187,94.488187 0 0 0 -26.22852,22.55664 113.38583,113.38583 0 0 1 16.87695,59.21289 75.590549,75.590549 0 0 1 25.04102,-56.15625 132.28346,132.28346 0 0 1 6.83594,17.59766 132.28346,132.28346 0 0 0 -22.52539,-43.21094 z m 22.52539,43.21094 a 132.28346,132.28346 0 0 1 0.29101,0.96484 132.28346,132.28346 0 0 0 -0.29101,-0.96484 z m 0.29101,0.96484 a 132.28346,132.28346 0 0 1 2.16602,8.14649 132.28346,132.28346 0 0 0 -2.16602,-8.14649 z m 2.16602,8.14649 a 132.28346,132.28346 0 0 1 0.45508,2.14062 132.28346,132.28346 0 0 0 -0.45508,-2.14062 z m 0.45508,2.14062 a 132.28346,132.28346 0 0 1 1.4082,7.45117 132.28346,132.28346 0 0 0 -1.4082,-7.45117 z m 1.4082,7.45117 a 132.28346,132.28346 0 0 1 0.42969,3.39453 132.28346,132.28346 0 0 0 -0.42969,-3.39453 z m 0.42969,3.39453 a 132.28346,132.28346 0 0 1 0.73633,6.4336 132.28346,132.28346 0 0 0 -0.73633,-6.4336 z m 0.73633,6.4336 a 132.28346,132.28346 0 0 1 0.43164,10.03125 132.28346,132.28346 0 0 0 -0.43164,-10.03125 z m 0.43164,10.03125 a 132.28346,132.28346 0 0 1 -0.43164,10.00195 132.28346,132.28346 0 0 0 0.43164,-10.00195 z m -0.43164,10.00195 a 132.28346,132.28346 0 0 1 -0.7461,6.53906 132.28346,132.28346 0 0 0 0.7461,-6.53906 z m -0.7461,6.53906 a 132.28346,132.28346 0 0 1 -0.41992,3.30469 132.28346,132.28346 0 0 0 0.41992,-3.30469 z m -0.41992,3.30469 a 132.28346,132.28346 0 0 1 -1.42773,7.54297 132.28346,132.28346 0 0 0 1.42773,-7.54297 z m -1.42773,7.54297 a 132.28346,132.28346 0 0 1 -0.42774,2.01172 132.28346,132.28346 0 0 0 0.42774,-2.01172 z m -0.42774,2.01172 a 132.28346,132.28346 0 0 1 -2.1875,8.22852 132.28346,132.28346 0 0 0 2.1875,-8.22852 z m -2.1875,8.22852 a 132.28346,132.28346 0 0 1 -0.27344,0.90039 132.28346,132.28346 0 0 0 0.27344,-0.90039 z m -0.27344,0.90039 a 132.28346,132.28346 0 0 1 -6.84375,17.62109 75.590549,75.590549 0 0 1 -25.03711,-56.15039 113.38583,113.38583 0 0 1 -16.90625,59.17383 94.488187,94.488187 0 0 0 26.25586,22.58789 132.28346,132.28346 0 0 0 22.53125,-43.23242 z m -49.00195,-97.46289 a 94.488187,94.488187 0 0 0 -5.91211,8.25195 94.488188,94.488188 0 0 1 5.91211,-8.25195 z m -6.41406,9.125 a 94.488187,94.488187 0 0 0 -4.3418,7.79101 94.488188,94.488188 0 0 1 4.3418,-7.79101 z m -5.60156,10.55078 a 94.488187,94.488187 0 0 0 -2.67579,6.40625 94.488188,94.488188 0 0 1 2.67579,-6.40625 z m -3.82227,9.72265 a 94.488187,94.488187 0 0 0 -1.83008,6.29883 94.488188,94.488188 0 0 1 1.83008,-6.29883 z m -2.66992,9.76758 a 94.488187,94.488187 0 0 0 -1.16602,6.80664 94.488188,94.488188 0 0 1 1.16602,-6.80664 z m -1.60156,9.8457 a 94.488187,94.488187 0 0 0 -0.56446,9.91797 94.488188,94.488188 0 0 1 0.56446,-9.91797 z m -0.56446,9.91797 a 94.488187,94.488187 0 0 0 0.56055,9.90235 94.488188,94.488188 0 0 1 -0.56055,-9.90235 z m 1.00586,12.98828 a 94.488187,94.488187 0 0 0 1.1543,6.75196 94.488188,94.488188 0 0 1 -1.1543,-6.75196 z m 2.00196,10.25 a 94.488187,94.488187 0 0 0 1.81835,6.25977 94.488188,94.488188 0 0 1 -1.81835,-6.25977 z m 2.97656,9.60938 a 94.488187,94.488187 0 0 0 2.64648,6.34375 94.488188,94.488188 0 0 1 -2.64648,-6.34375 z m 3.93164,9.16406 a 94.488187,94.488187 0 0 0 4.23242,7.5957 94.488188,94.488188 0 0 1 -4.23242,-7.5957 z m 4.8457,8.66211 a 94.488187,94.488187 0 0 0 5.88086,8.21875 94.488188,94.488188 0 0 1 -5.88086,-8.21875 z"
               transform="matrix(0.26458333,0,0,0.26458333,51.904326,-8.8074715)" />
            <path
               id="circle5150-8"
               style="display:inline;fill:#54478c;fill-opacity:1;stroke:#006d93;stroke-width:0.188976;stroke-linejoin:round;stroke-miterlimit:4;stroke-dasharray:none;stroke-opacity:0.5"
               d="m 209.87695,129.73047 a 94.488189,94.488189 0 0 0 -20.90039,59.24609 94.488189,94.488189 0 0 0 20.8711,59.21094 113.38583,113.38583 0 0 0 16.92382,-59.20703 113.38583,113.38583 0 0 0 -16.89453,-59.25 z"
               transform="matrix(0.26458333,0,0,0.26458333,51.904326,-8.8074715)" />
            <path
               id="path7774"
               style="display:inline;fill:#0db39e;fill-opacity:1;stroke:#006d93;stroke-width:0.188976;stroke-linejoin:round;stroke-miterlimit:4;stroke-dasharray:none;stroke-opacity:0.5"
               d="m 251.8125,132.82031 a 75.590551,75.590551 0 0 0 -25.04102,56.15625 75.590551,75.590551 0 0 0 25.03711,56.1543 132.28346,132.28346 0 0 0 12.75782,-56.15039 132.28346,132.28346 0 0 0 -12.75391,-56.16016 z"
               transform="matrix(0.26458333,0,0,0.26458333,51.904326,-8.8074715)" />
          </g>
          <g
             id="g5751"
             style="display:inline;stroke:#006d93;stroke-width:0.05;stroke-miterlimit:4;stroke-dasharray:none;stroke-opacity:0.5"
             transform="translate(-0.16019701)">
            <path
               id="circle5148"
               style="display:inline;fill:#048ba8;fill-opacity:1;stroke:#006d93;stroke-width:0.05;stroke-linejoin:round;stroke-miterlimit:4;stroke-dasharray:none;stroke-opacity:0.5"
               d="M 50.160245,50.000048 A 24.999999,24.999999 0 0 1 44.60658,65.672477 30,30 0 0 0 57.283325,77.089867 34.999998,34.999998 0 0 0 62.629768,71.629735 24.999999,24.999999 0 0 1 50.160245,50.000048 Z m -9.826273,3.06493 a 30,30 0 0 0 0.15813,1.131713 30,30 0 0 1 -0.15813,-1.131713 z m 0.481623,3.024622 a 30,30 0 0 0 0.311611,1.328599 30,30 0 0 1 -0.311611,-1.328599 z m 0.786517,2.967775 a 30,30 0 0 0 0.454752,1.364777 30,30 0 0 1 -0.454752,-1.364777 z m 1.099158,2.911967 a 30,30 0 0 0 0.883666,1.865003 30,30 0 0 1 -0.883666,-1.865003 z" />
            <path
               id="circle5150"
               style="display:inline;fill:#49769e;fill-opacity:1;stroke:#006d93;stroke-width:0.05;stroke-linejoin:round;stroke-miterlimit:4;stroke-dasharray:none;stroke-opacity:0.5"
               d="m 50.160245,50.000048 a 24.999998,24.999998 0 0 1 -5.542296,15.657959 30,30 0 0 0 5.502505,6.648172 30,30 0 0 0 5.581573,-6.679694 24.999999,24.999999 0 0 1 -5.541782,-15.626437 z m -9.839709,3.011704 a 30,30 0 0 0 0.03721,0.31781 30,30 0 0 1 -0.03721,-0.31781 z m 0.464571,3.0055 a 30,30 0 0 0 0.0894,0.42478 30,30 0 0 1 -0.0894,-0.42478 z m 0.787548,3.01997 a 30,30 0 0 0 0.112655,0.365868 30,30 0 0 1 -0.112655,-0.365868 z m 1.136365,3.024621 a 30,30 0 0 0 0.199988,0.428398 30,30 0 0 1 -0.199988,-0.428398 z m 1.352888,2.685624 a 30,30 0 0 0 0.319879,0.548288 30,30 0 0 1 -0.319879,-0.548288 z" />
          </g>
          <g
             id="g2903"
             style="display:inline;stroke:#006d93;stroke-width:0.05;stroke-miterlimit:4;stroke-dasharray:none;stroke-opacity:0.5">
            <path
               id="path2899"
               style="display:inline;fill:#83e377;fill-opacity:1;stroke:#006d93;stroke-width:0.188976;stroke-linejoin:round;stroke-miterlimit:4;stroke-dasharray:none;stroke-opacity:0.5"
               d="m 215.91211,86.582031 a 113.38583,113.38583 0 0 0 -47.92773,43.162109 94.488186,94.488186 0 0 1 20.99218,59.23242 94.488187,94.488187 0 0 1 47.13672,-81.75781 132.28346,132.28346 0 0 0 -20.20117,-20.636719 z m -51.45117,49.501949 a 113.38583,113.38583 0 0 0 -3.69532,7.70118 113.38583,113.38583 0 0 1 3.69532,-7.70118 z m -6.10938,13.5 a 113.38583,113.38583 0 0 0 -1.71289,5.13086 113.38583,113.38583 0 0 1 1.71289,-5.13086 z m -3.51953,11.36914 a 113.38583,113.38583 0 0 0 -1.17578,5.00977 113.38583,113.38583 0 0 1 1.17578,-5.00977 z m -2.39453,12.14844 a 113.38583,113.38583 0 0 0 -0.59961,4.29297 113.38583,113.38583 0 0 1 0.59961,-4.29297 z"
               transform="scale(0.26458333)" />
            <path
               id="path2901"
               style="display:inline;fill:#16db93;fill-opacity:1;stroke:#006d93;stroke-width:0.188976;stroke-linejoin:round;stroke-miterlimit:4;stroke-dasharray:none;stroke-opacity:0.5"
               d="m 188.88086,104.62305 a 113.38583,113.38583 0 0 0 -20.85352,25.17578 94.488184,94.488184 0 0 1 20.94922,59.17773 94.488187,94.488187 0 0 1 20.97852,-59.10351 113.38583,113.38583 0 0 0 -21.07422,-25.25 z m -21.73828,26.53515 a 113.38583,113.38583 0 0 0 -1.1836,2.02735 113.38583,113.38583 0 0 1 1.1836,-2.02735 z m -5.56641,10.59766 a 113.38583,113.38583 0 0 0 -0.74219,1.58789 113.38583,113.38583 0 0 1 0.74219,-1.58789 z m -4.6289,11.67578 a 113.38583,113.38583 0 0 0 -0.41016,1.32813 113.38583,113.38583 0 0 1 0.41016,-1.32813 z m -3.0625,11.18164 a 113.38583,113.38583 0 0 0 -0.33789,1.60547 113.38583,113.38583 0 0 1 0.33789,-1.60547 z m -1.95704,11.77344 a 113.38583,113.38583 0 0 0 -0.14062,1.20898 113.38583,113.38583 0 0 1 0.14062,-1.20898 z"
               transform="scale(0.26458333)" />
          </g>
          <path
             id="circle5152-6"
             style="display:inline;fill:#0db39e;fill-opacity:1;stroke:#006d93;stroke-width:0.05;stroke-linejoin:round;stroke-miterlimit:4;stroke-dasharray:none;stroke-opacity:0.5"
             d="m 44.443282,34.32452 a 30,30 0 0 0 -4.44314,15.675528 30,30 0 0 0 4.443656,15.676046 24.999999,24.999999 0 0 0 5.55625,-15.676046 24.999999,24.999999 0 0 0 -5.556766,-15.675528 z" />
          <path
             id="path7530"
             style="display:inline;fill:#b9e769;fill-opacity:1;stroke:#006d93;stroke-width:0.05;stroke-linejoin:round;stroke-miterlimit:4;stroke-dasharray:none;stroke-opacity:0.5"
             d="M 33.349903,35.111033 A 34.999998,34.999998 0 0 0 30.000236,50.000048 34.999998,34.999998 0 0 0 33.340085,64.869424 20,20 0 0 0 40.000142,50.000048 20,20 0 0 0 33.349903,35.111033 Z" />
          <g
             id="g10285"
             style="stroke:#006d93;stroke-width:0.05;stroke-miterlimit:4;stroke-dasharray:none;stroke-opacity:0.5">
            <path
               id="path10120"
               style="display:inline;fill:#83e377;fill-opacity:1;stroke:#006d93;stroke-width:0.188976;stroke-linejoin:round;stroke-miterlimit:4;stroke-dasharray:none;stroke-opacity:0.5"
               d="m 151.18164,188.97656 a 75.59055,75.59055 0 0 1 -25.2168,56.07813 132.28346,132.28346 0 0 0 63.12696,63.36133 132.28346,132.28346 0 0 0 27.00781,-17.16797 113.38583,113.38583 0 0 1 -64.91797,-102.27149 z"
               transform="scale(0.26458333)" />
            <path
               id="path9476"
               style="display:inline;fill:#0db39e;fill-opacity:1;stroke:#006d93;stroke-width:0.188976;stroke-linejoin:round;stroke-miterlimit:4;stroke-dasharray:none;stroke-opacity:0.5"
               d="m 167.98828,248.06055 a 94.488188,94.488188 0 0 1 -26.26172,22.5039 132.28346,132.28346 0 0 0 47.36524,37.85157 132.28346,132.28346 0 0 0 27.00781,-17.16797 113.38583,113.38583 0 0 1 -48.11133,-43.1875 z"
               transform="scale(0.26458333)" />
            <path
               id="path9889"
               style="display:inline;fill:#16db93;fill-opacity:1;stroke:#006d93;stroke-width:0.188976;stroke-linejoin:round;stroke-miterlimit:4;stroke-dasharray:none;stroke-opacity:0.5"
               d="m 188.96289,273.18555 a 113.38583,113.38583 0 0 1 -26.99609,17.98633 132.28346,132.28346 0 0 0 27.125,17.24414 132.28346,132.28346 0 0 0 27.00781,-17.16797 113.38583,113.38583 0 0 1 -27.13672,-18.0625 z"
               transform="scale(0.26458333)" />
          </g>
          <g
             id="g10293"
             style="stroke:#006d93;stroke-width:0.05;stroke-miterlimit:4;stroke-dasharray:none;stroke-opacity:0.5">
            <path
               id="path10287"
               style="display:inline;fill:#f29e4c;fill-opacity:1;stroke:#006d93;stroke-width:0.188976;stroke-linejoin:round;stroke-miterlimit:4;stroke-dasharray:none;stroke-opacity:0.5"
               d="m 189.10742,69.527344 a 132.28346,132.28346 0 0 0 -63.06445,63.195316 75.59055,75.59055 0 0 1 25.13867,56.2539 113.38583,113.38583 0 0 1 64.96289,-102.292966 132.28346,132.28346 0 0 0 -27.03711,-17.15625 z"
               transform="scale(0.26458333)" />
            <path
               id="path10289"
               style="display:inline;fill:#83e377;fill-opacity:1;stroke:#006d93;stroke-width:0.188976;stroke-linejoin:round;stroke-miterlimit:4;stroke-dasharray:none;stroke-opacity:0.5"
               d="m 189.10742,69.527344 a 132.28346,132.28346 0 0 0 -47.26562,37.710936 94.488188,94.488188 0 0 1 26.23828,22.5 113.38583,113.38583 0 0 1 48.06445,-43.054686 132.28346,132.28346 0 0 0 -27.03711,-17.15625 z"
               transform="scale(0.26458333)" />
            <path
               id="path10291"
               style="display:inline;fill:#b9e769;fill-opacity:1;stroke:#006d93;stroke-width:0.188976;stroke-linejoin:round;stroke-miterlimit:4;stroke-dasharray:none;stroke-opacity:0.5"
               d="M 189.10742,69.527344 A 132.28346,132.28346 0 0 0 162.15625,86.625 a 113.38583,113.38583 0 0 1 26.9668,18.00391 113.38583,113.38583 0 0 1 27.02148,-17.945316 132.28346,132.28346 0 0 0 -27.03711,-17.15625 z"
               transform="scale(0.26458333)" />
          </g>
        </g>
        <g
           aria-label="Gradient Boosted Multi-Label Classification Rules"
           transform="matrix(0.26458333,0,0,0.26458333,2.2259822,-1.1541691e-6)"
           id="text5064"
           style="font-size:50.6667px;line-height:1.25;font-family:'Jost*';-inkscape-font-specification:'Jost*';letter-spacing:0px;word-spacing:0px;white-space:pre;shape-inside:url(#rect5066);display:inline;fill:#1e1e1e">
          <path
             d="m 479.73026,302.87976 h 10.89334 c -1.16533,4.81333 -4.81333,8.664 -11.14667,8.664 -6.992,0 -12.36267,-5.168 -12.36267,-12.92001 0,-7.752 5.472,-12.81867 12.36267,-12.81867 4.91467,0 8.41067,2.28 10.38667,5.624 l 4.86401,-3.29333 c -3.14134,-4.91467 -8.30934,-7.85334 -15.25068,-7.85334 -10.74134,0 -18.64535,7.49867 -18.64535,18.34134 0,10.84268 7.80268,18.49335 18.54402,18.49335 11.34934,0 17.68267,-8.91734 17.42934,-19.30401 h -17.07468 z"
             style="font-weight:500;-inkscape-font-specification:'Jost* Medium'"
             id="path346" />
          <path
             d="m 514.79166,298.92775 2.68534,-4.66133 c -1.064,-1.216 -2.63467,-1.72267 -4.30667,-1.72267 -1.976,0 -3.952,1.26667 -5.32,3.344 v -2.83733 h -5.42134 v 23.30668 h 5.42134 v -13.12268 c 0,-3.344 1.11466,-5.57333 3.85067,-5.57333 1.31733,0 2.07733,0.456 3.09066,1.26666 z"
             style="font-weight:500;-inkscape-font-specification:'Jost* Medium'"
             id="path348" />
          <path
             d="m 522.89838,299.13042 c 1.01333,-0.70933 3.74934,-2.17867 7.09334,-2.17867 2.888,0 4.96533,1.01334 4.96533,3.85067 v 2.83734 c -1.46933,-0.81067 -3.69866,-1.62134 -6.73867,-1.62134 -5.776,0 -9.12,2.888 -9.12,7.39734 0,4.76267 3.74933,7.448 8.15734,7.448 2.98933,0 6.232,-1.216 7.70133,-3.69866 v 3.192 h 5.37067 v -16.61868 c 0,-4.61067 -4.104,-7.24534 -9.82933,-7.24534 -4.35734,0 -7.70134,1.52 -9.82934,2.78667 z m 1.72267,9.98134 c 0,-2.17867 1.46933,-3.496 4.91467,-3.496 1.976,0 3.74933,0.35466 5.42133,1.16533 v 0.35467 c 0,3.54667 -2.736,5.624 -5.97867,5.624 -2.53333,0 -4.35733,-1.31733 -4.35733,-3.648 z"
             style="font-weight:500;-inkscape-font-specification:'Jost* Medium'"
             id="path350" />
          <path
             d="m 544.93838,304.70376 c 0,7.65067 5.26934,12.16 11.34934,12.16 3.39467,0 6.18134,-1.57066 7.95467,-4.35733 v 3.85067 h 5.52267 v -39.52003 h -5.52267 v 20.06402 c -1.77333,-2.78667 -4.56,-4.35734 -7.95467,-4.35734 -6.08,0 -11.34934,4.50934 -11.34934,12.16001 z m 5.67467,0 c 0,-4.66134 3.192,-7.39734 6.99201,-7.39734 3.14133,0 6.63733,2.63467 6.63733,7.39734 0,4.76267 -3.496,7.39734 -6.63733,7.39734 -3.80001,0 -6.99201,-2.73601 -6.99201,-7.39734 z"
             style="font-weight:500;-inkscape-font-specification:'Jost* Medium'"
             id="path352" />
          <path
             d="m 576.30103,283.77841 c 0,1.87467 1.52,3.344 3.44533,3.344 1.92534,0 3.44534,-1.46933 3.44534,-3.344 0,-1.87467 -1.52,-3.344 -3.44534,-3.344 -1.92533,0 -3.44533,1.46933 -3.44533,3.344 z m 0.76,9.27201 v 23.30668 h 5.37067 v -23.30668 z"
             style="font-weight:500;-inkscape-font-specification:'Jost* Medium'"
             id="path354" />
          <path
             d="m 600.11442,316.86376 c 5.37067,0 9.272,-2.128 11.70401,-6.33333 l -4.76267,-1.87467 c -1.52,2.53333 -3.74934,3.69867 -6.68801,3.69867 -3.8,0 -6.13067,-2.33067 -6.536,-6.38401 h 18.13868 c 0,-0.25333 0.0507,-0.912 0.0507,-1.52 0,-7.448 -4.30667,-11.90667 -11.65334,-11.90667 -7.39734,0 -12.16001,4.81334 -12.16001,12.16001 0,7.296 4.71201,12.16 11.90668,12.16 z m 0.20267,-20.16534 c 3.24266,0 5.472,2.128 5.72533,5.472 h -12.05867 c 0.65867,-3.54667 2.888,-5.472 6.33334,-5.472 z"
             style="font-weight:500;-inkscape-font-specification:'Jost* Medium'"
             id="path356" />
          <path
             d="m 632.2371,302.17042 v 14.18668 h 5.62401 v -14.79468 c 0,-5.624 -2.83734,-9.01867 -8.10667,-9.01867 -3.19201,0 -5.57334,1.368 -7.04268,4.104 v -3.59733 h -5.472 v 23.30668 h 5.472 v -14.18668 c 0,-3.14133 2.12801,-5.21867 5.21867,-5.21867 2.93867,0 4.30667,1.824 4.30667,5.21867 z"
             style="font-weight:500;-inkscape-font-specification:'Jost* Medium'"
             id="path358" />
          <path
             d="m 641.61045,293.05042 v 4.81333 h 3.90134 v 18.49335 h 5.42133 v -18.49335 h 3.90134 v -4.81333 h -3.90134 v -8.10668 h -5.42133 v 8.10668 z"
             style="font-weight:500;-inkscape-font-specification:'Jost* Medium'"
             id="path360" />
          <path
             d="m 698.30645,306.12242 c 0,-4.96533 -3.192,-7.80267 -7.54934,-8.968 3.44534,-1.26667 5.52267,-3.8 5.52267,-7.34667 0,-6.02934 -4.61067,-8.91734 -11.34934,-8.91734 h -10.69067 v 35.46669 h 11.29867 c 7.44801,0 12.76801,-3.192 12.76801,-10.23468 z m -13.78134,-20.31734 c 3.29333,0 5.624,1.72267 5.624,4.66134 0,2.93866 -2.33067,4.66133 -5.624,4.66133 h -4.30667 v -9.32267 z m -4.30667,25.63735 v -11.65334 h 4.96533 c 4.05334,0 6.99201,1.87467 6.99201,5.72533 0,3.95201 -2.93867,5.92801 -6.99201,5.92801 z"
             style="font-weight:500;-inkscape-font-specification:'Jost* Medium'"
             id="path362" />
          <path
             d="m 702.41047,304.70376 c 0,7.144 5.42134,12.16 12.56534,12.16 7.14401,0 12.56535,-5.016 12.56535,-12.16 0,-7.14401 -5.42134,-12.16001 -12.56535,-12.16001 -7.144,0 -12.56534,5.016 -12.56534,12.16001 z m 5.62401,0 c 0,-4.35734 2.98933,-7.34667 6.94133,-7.34667 3.95201,0 6.94134,2.98933 6.94134,7.34667 0,4.35733 -2.98933,7.34667 -6.94134,7.34667 -3.952,0 -6.94133,-2.98934 -6.94133,-7.34667 z"
             style="font-weight:500;-inkscape-font-specification:'Jost* Medium'"
             id="path364" />
          <path
             d="m 730.9358,304.70376 c 0,7.144 5.42134,12.16 12.56534,12.16 7.14401,0 12.56534,-5.016 12.56534,-12.16 0,-7.14401 -5.42133,-12.16001 -12.56534,-12.16001 -7.144,0 -12.56534,5.016 -12.56534,12.16001 z m 5.62401,0 c 0,-4.35734 2.98933,-7.34667 6.94133,-7.34667 3.95201,0 6.94134,2.98933 6.94134,7.34667 0,4.35733 -2.98933,7.34667 -6.94134,7.34667 -3.952,0 -6.94133,-2.98934 -6.94133,-7.34667 z"
             style="font-weight:500;-inkscape-font-specification:'Jost* Medium'"
             id="path366" />
          <path
             d="m 762.29847,308.70643 -3.192,3.192 c 2.02666,2.68533 5.624,5.168 10.43734,5.168 5.06666,0 8.30933,-2.888 8.30933,-7.296 0,-4.20534 -3.29333,-5.72534 -7.144,-7.29601 -2.888,-1.11466 -5.06667,-1.92533 -5.06667,-3.69867 0,-1.26666 1.11467,-1.976 2.68533,-1.976 2.28001,0 4.61067,1.31734 6.13067,3.09067 l 3.04001,-3.24267 c -1.92534,-2.33067 -5.21867,-4.104 -9.01868,-4.104 -4.30666,0 -8.00533,2.128 -8.00533,6.33334 0,4.256 3.44533,5.928 6.63733,7.09333 3.09067,1.11467 5.21867,2.07734 5.21867,4.10401 0,1.52 -1.16533,2.48267 -3.14133,2.48267 -2.38134,0 -4.61067,-1.36801 -6.89067,-3.85067 z"
             style="font-weight:500;-inkscape-font-specification:'Jost* Medium'"
             id="path368" />
          <path
             d="m 779.47446,293.05042 v 4.81333 h 3.90134 v 18.49335 h 5.42134 v -18.49335 h 3.90133 v -4.81333 h -3.90133 v -8.10668 h -5.42134 v 8.10668 z"
             style="font-weight:500;-inkscape-font-specification:'Jost* Medium'"
             id="path370" />
          <path
             d="m 806.58115,316.86376 c 5.37067,0 9.27201,-2.128 11.70401,-6.33333 l -4.76267,-1.87467 c -1.52,2.53333 -3.74933,3.69867 -6.688,3.69867 -3.8,0 -6.13067,-2.33067 -6.53601,-6.38401 h 18.13868 c 0,-0.25333 0.0507,-0.912 0.0507,-1.52 0,-7.448 -4.30667,-11.90667 -11.65334,-11.90667 -7.39734,0 -12.16001,4.81334 -12.16001,12.16001 0,7.296 4.712,12.16 11.90667,12.16 z m 0.20267,-20.16534 c 3.24267,0 5.472,2.128 5.72534,5.472 h -12.05868 c 0.65867,-3.54667 2.88801,-5.472 6.33334,-5.472 z"
             style="font-weight:500;-inkscape-font-specification:'Jost* Medium'"
             id="path372" />
          <path
             d="m 821.93318,304.70376 c 0,7.65067 5.26933,12.16 11.34934,12.16 3.39467,0 6.18134,-1.57066 7.95467,-4.35733 v 3.85067 h 5.52267 v -39.52003 h -5.52267 v 20.06402 c -1.77333,-2.78667 -4.56,-4.35734 -7.95467,-4.35734 -6.08001,0 -11.34934,4.50934 -11.34934,12.16001 z m 5.67467,0 c 0,-4.66134 3.192,-7.39734 6.992,-7.39734 3.14134,0 6.63734,2.63467 6.63734,7.39734 0,4.76267 -3.496,7.39734 -6.63734,7.39734 -3.8,0 -6.992,-2.73601 -6.992,-7.39734 z"
             style="font-weight:500;-inkscape-font-specification:'Jost* Medium'"
             id="path374" />
          <path
             d="m 875.74113,294.77308 10.792,18.29068 10.84268,-18.29068 2.432,21.58402 h 6.18134 l -4.86401,-37.24003 -14.59201,24.06669 -14.54134,-24.06669 -4.864,37.24003 h 6.18134 z"
             style="font-weight:500;-inkscape-font-specification:'Jost* Medium'"
             id="path376" />
          <path
             d="m 916.98387,307.23709 v -14.18667 h -5.62401 v 14.79467 c 0,5.57334 2.88801,9.01867 8.10668,9.01867 3.24266,0 5.57333,-1.41866 7.04267,-4.104 v 3.59734 h 5.472 v -23.30668 h -5.472 v 14.18667 c 0,3.14134 -2.12801,5.21867 -5.21867,5.21867 -2.93867,0 -4.30667,-1.92533 -4.30667,-5.21867 z"
             style="font-weight:500;-inkscape-font-specification:'Jost* Medium'"
             id="path378" />
          <path
             d="m 938.97324,276.83707 v 39.52003 h 5.472 v -39.52003 z"
             style="font-weight:500;-inkscape-font-specification:'Jost* Medium'"
             id="path380" />
          <path
             d="m 948.19459,293.05042 v 4.81333 h 3.90133 v 18.49335 h 5.42134 v -18.49335 h 3.90134 v -4.81333 h -3.90134 v -8.10668 h -5.42134 v 8.10668 z"
             style="font-weight:500;-inkscape-font-specification:'Jost* Medium'"
             id="path382" />
          <path
             d="m 964.96524,283.77841 c 0,1.87467 1.52,3.344 3.44534,3.344 1.92533,0 3.44533,-1.46933 3.44533,-3.344 0,-1.87467 -1.52,-3.344 -3.44533,-3.344 -1.92534,0 -3.44534,1.46933 -3.44534,3.344 z m 0.76,9.27201 v 23.30668 h 5.37067 v -23.30668 z"
             style="font-weight:500;-inkscape-font-specification:'Jost* Medium'"
             id="path384" />
          <path
             d="m 975.40263,306.78109 h 10.38667 v -4.91467 h -10.38667 z"
             style="font-weight:500;-inkscape-font-specification:'Jost* Medium'"
             id="path386" />
          <path
             d="m 989.94401,280.89041 v 35.46669 h 20.06399 v -5.37067 h -14.08532 v -30.09602 z"
             style="font-weight:500;-inkscape-font-specification:'Jost* Medium'"
             id="path388" />
          <path
             d="m 1015.5814,299.13042 c 1.0133,-0.70933 3.7493,-2.17867 7.0933,-2.17867 2.888,0 4.9654,1.01334 4.9654,3.85067 v 2.83734 c -1.4694,-0.81067 -3.6987,-1.62134 -6.7387,-1.62134 -5.776,0 -9.12,2.888 -9.12,7.39734 0,4.76267 3.7493,7.448 8.1573,7.448 2.9894,0 6.232,-1.216 7.7014,-3.69866 v 3.192 h 5.3706 v -16.61868 c 0,-4.61067 -4.104,-7.24534 -9.8293,-7.24534 -4.3573,0 -7.7013,1.52 -9.8293,2.78667 z m 1.7227,9.98134 c 0,-2.17867 1.4693,-3.496 4.9146,-3.496 1.976,0 3.7494,0.35466 5.4214,1.16533 v 0.35467 c 0,3.54667 -2.736,5.624 -5.9787,5.624 -2.5333,0 -4.3573,-1.31733 -4.3573,-3.648 z"
             style="font-weight:500;-inkscape-font-specification:'Jost* Medium'"
             id="path390" />
          <path
             d="m 1064.0188,304.70376 c 0,-7.65067 -5.2694,-12.16001 -11.3494,-12.16001 -3.3946,0 -6.1813,1.57067 -7.9547,4.35734 v -20.06402 h -5.5226 v 39.52003 h 5.5226 v -3.85067 c 1.7734,2.78667 4.5601,4.35733 7.9547,4.35733 6.08,0 11.3494,-4.50933 11.3494,-12.16 z m -5.6747,0 c 0,4.66133 -3.192,7.39734 -6.992,7.39734 -3.1413,0 -6.6374,-2.63467 -6.6374,-7.39734 0,-4.76267 3.4961,-7.39734 6.6374,-7.39734 3.8,0 6.992,2.736 6.992,7.39734 z"
             style="font-weight:500;-inkscape-font-specification:'Jost* Medium'"
             id="path392" />
          <path
             d="m 1079.3201,316.86376 c 5.3706,0 9.272,-2.128 11.704,-6.33333 l -4.7627,-1.87467 c -1.52,2.53333 -3.7493,3.69867 -6.688,3.69867 -3.8,0 -6.1307,-2.33067 -6.536,-6.38401 h 18.1387 c 0,-0.25333 0.051,-0.912 0.051,-1.52 0,-7.448 -4.3067,-11.90667 -11.6534,-11.90667 -7.3973,0 -12.16,4.81334 -12.16,12.16001 0,7.296 4.712,12.16 11.9067,12.16 z m 0.2026,-20.16534 c 3.2427,0 5.472,2.128 5.7254,5.472 h -12.0587 c 0.6587,-3.54667 2.888,-5.472 6.3333,-5.472 z"
             style="font-weight:500;-inkscape-font-specification:'Jost* Medium'"
             id="path394" />
          <path
             d="m 1096.4454,276.83707 v 39.52003 h 5.472 v -39.52003 z"
             style="font-weight:500;-inkscape-font-specification:'Jost* Medium'"
             id="path396" />
          <path
             d="m 1129.0241,298.62375 c 0,-7.54933 5.624,-12.51467 12.1093,-12.51467 5.016,0 8.664,2.17867 11.096,5.06667 v -7.14401 c -2.9386,-2.432 -6.1306,-3.74933 -11.2987,-3.74933 -10.4373,0 -18.392,7.54934 -18.392,18.34134 0,10.79201 7.9547,18.34135 18.392,18.34135 5.1681,0 8.3601,-1.31734 11.2987,-3.74934 v -7.144 c -2.432,2.888 -6.08,5.06667 -11.096,5.06667 -6.4853,0 -12.1093,-4.96534 -12.1093,-12.51468 z"
             style="font-weight:500;-inkscape-font-specification:'Jost* Medium'"
             id="path398" />
          <path
             d="m 1159.1201,276.83707 v 39.52003 h 5.472 v -39.52003 z"
             style="font-weight:500;-inkscape-font-specification:'Jost* Medium'"
             id="path400" />
          <path
             d="m 1173.3068,299.13042 c 1.0133,-0.70933 3.7493,-2.17867 7.0933,-2.17867 2.888,0 4.9654,1.01334 4.9654,3.85067 v 2.83734 c -1.4694,-0.81067 -3.6987,-1.62134 -6.7387,-1.62134 -5.776,0 -9.12,2.888 -9.12,7.39734 0,4.76267 3.7493,7.448 8.1573,7.448 2.9894,0 6.232,-1.216 7.7014,-3.69866 v 3.192 h 5.3706 v -16.61868 c 0,-4.61067 -4.104,-7.24534 -9.8293,-7.24534 -4.3573,0 -7.7013,1.52 -9.8293,2.78667 z m 1.7227,9.98134 c 0,-2.17867 1.4693,-3.496 4.9146,-3.496 1.976,0 3.7494,0.35466 5.4214,1.16533 v 0.35467 c 0,3.54667 -2.736,5.624 -5.9787,5.624 -2.5333,0 -4.3573,-1.31733 -4.3573,-3.648 z"
             style="font-weight:500;-inkscape-font-specification:'Jost* Medium'"
             id="path402" />
          <path
             d="m 1198.1841,308.70643 -3.192,3.192 c 2.0267,2.68533 5.624,5.168 10.4373,5.168 5.0667,0 8.3094,-2.888 8.3094,-7.296 0,-4.20534 -3.2934,-5.72534 -7.144,-7.29601 -2.888,-1.11466 -5.0667,-1.92533 -5.0667,-3.69867 0,-1.26666 1.1147,-1.976 2.6853,-1.976 2.28,0 4.6107,1.31734 6.1307,3.09067 l 3.04,-3.24267 c -1.9253,-2.33067 -5.2187,-4.104 -9.0187,-4.104 -4.3066,0 -8.0053,2.128 -8.0053,6.33334 0,4.256 3.4453,5.928 6.6373,7.09333 3.0907,1.11467 5.2187,2.07734 5.2187,4.10401 0,1.52 -1.1653,2.48267 -3.1413,2.48267 -2.3814,0 -4.6107,-1.36801 -6.8907,-3.85067 z"
             style="font-weight:500;-inkscape-font-specification:'Jost* Medium'"
             id="path404" />
          <path
             d="m 1219.6668,308.70643 -3.192,3.192 c 2.0267,2.68533 5.624,5.168 10.4374,5.168 5.0666,0 8.3093,-2.888 8.3093,-7.296 0,-4.20534 -3.2933,-5.72534 -7.144,-7.29601 -2.888,-1.11466 -5.0667,-1.92533 -5.0667,-3.69867 0,-1.26666 1.1147,-1.976 2.6854,-1.976 2.28,0 4.6106,1.31734 6.1306,3.09067 l 3.04,-3.24267 c -1.9253,-2.33067 -5.2186,-4.104 -9.0186,-4.104 -4.3067,0 -8.0054,2.128 -8.0054,6.33334 0,4.256 3.4453,5.928 6.6374,7.09333 3.0906,1.11467 5.2186,2.07734 5.2186,4.10401 0,1.52 -1.1653,2.48267 -3.1413,2.48267 -2.3813,0 -4.6107,-1.36801 -6.8907,-3.85067 z"
             style="font-weight:500;-inkscape-font-specification:'Jost* Medium'"
             id="path406" />
          <path
             d="m 1239.8828,283.77841 c 0,1.87467 1.52,3.344 3.4453,3.344 1.9254,0 3.4454,-1.46933 3.4454,-3.344 0,-1.87467 -1.52,-3.344 -3.4454,-3.344 -1.9253,0 -3.4453,1.46933 -3.4453,3.344 z m 0.76,9.27201 v 23.30668 h 5.3707 v -23.30668 z"
             style="font-weight:500;-inkscape-font-specification:'Jost* Medium'"
             id="path408" />
          <path
             d="m 1251.6375,293.05042 v 4.81333 h 2.5333 v 18.49335 h 5.3707 v -18.49335 h 5.472 v -4.81333 h -5.472 v -7.54934 c 0,-2.93867 0.912,-4.104 2.432,-4.104 0.8613,0 1.7733,0.25333 2.4827,1.31733 l 2.5333,-4.256 c -0.8613,-1.01334 -2.584,-2.22934 -5.2693,-2.22934 -4.864,0 -7.5494,2.78667 -7.5494,8.20801 v 8.61334 z"
             style="font-weight:500;-inkscape-font-specification:'Jost* Medium'"
             id="path410" />
          <path
             d="m 1269.0162,283.77841 c 0,1.87467 1.52,3.344 3.4453,3.344 1.9253,0 3.4453,-1.46933 3.4453,-3.344 0,-1.87467 -1.52,-3.344 -3.4453,-3.344 -1.9253,0 -3.4453,1.46933 -3.4453,3.344 z m 0.76,9.27201 v 23.30668 h 5.3706 v -23.30668 z"
             style="font-weight:500;-inkscape-font-specification:'Jost* Medium'"
             id="path412" />
          <path
             d="m 1286.3442,304.70376 c 0,-4.30667 3.1413,-7.44801 7.2453,-7.44801 3.2427,0 6.4347,1.672 7.6,3.95201 v -6.08001 c -1.6213,-1.57067 -4.56,-2.584 -7.8533,-2.584 -7.2453,0 -12.616,5.016 -12.616,12.16001 0,7.144 5.3707,12.16 12.616,12.16 3.2933,0 6.232,-0.96266 7.8533,-2.63466 v -6.02934 c -1.1653,2.28 -4.256,3.952 -7.6,3.952 -4.104,0 -7.2453,-3.04 -7.2453,-7.448 z"
             style="font-weight:500;-inkscape-font-specification:'Jost* Medium'"
             id="path414" />
          <path
             d="m 1308.9415,299.13042 c 1.0133,-0.70933 3.7493,-2.17867 7.0933,-2.17867 2.888,0 4.9654,1.01334 4.9654,3.85067 v 2.83734 c -1.4694,-0.81067 -3.6987,-1.62134 -6.7387,-1.62134 -5.776,0 -9.12,2.888 -9.12,7.39734 0,4.76267 3.7493,7.448 8.1573,7.448 2.9894,0 6.232,-1.216 7.7014,-3.69866 v 3.192 h 5.3707 v -16.61868 c 0,-4.61067 -4.104,-7.24534 -9.8294,-7.24534 -4.3573,0 -7.7013,1.52 -9.8293,2.78667 z m 1.7227,9.98134 c 0,-2.17867 1.4693,-3.496 4.9146,-3.496 1.976,0 3.7494,0.35466 5.4214,1.16533 v 0.35467 c 0,3.54667 -2.736,5.624 -5.9787,5.624 -2.5333,0 -4.3573,-1.31733 -4.3573,-3.648 z"
             style="font-weight:500;-inkscape-font-specification:'Jost* Medium'"
             id="path416" />
          <path
             d="m 1329.5122,293.05042 v 4.81333 h 3.9013 v 18.49335 h 5.4214 v -18.49335 h 3.9013 v -4.81333 h -3.9013 v -8.10668 h -5.4214 v 8.10668 z"
             style="font-weight:500;-inkscape-font-specification:'Jost* Medium'"
             id="path418" />
          <path
             d="m 1346.2829,283.77841 c 0,1.87467 1.52,3.344 3.4453,3.344 1.9254,0 3.4454,-1.46933 3.4454,-3.344 0,-1.87467 -1.52,-3.344 -3.4454,-3.344 -1.9253,0 -3.4453,1.46933 -3.4453,3.344 z m 0.76,9.27201 v 23.30668 h 5.3707 v -23.30668 z"
             style="font-weight:500;-inkscape-font-specification:'Jost* Medium'"
             id="path420" />
          <path
             d="m 1358.1896,304.70376 c 0,7.144 5.4213,12.16 12.5653,12.16 7.144,0 12.5654,-5.016 12.5654,-12.16 0,-7.14401 -5.4214,-12.16001 -12.5654,-12.16001 -7.144,0 -12.5653,5.016 -12.5653,12.16001 z m 5.624,0 c 0,-4.35734 2.9893,-7.34667 6.9413,-7.34667 3.952,0 6.9414,2.98933 6.9414,7.34667 0,4.35733 -2.9894,7.34667 -6.9414,7.34667 -3.952,0 -6.9413,-2.98934 -6.9413,-7.34667 z"
             style="font-weight:500;-inkscape-font-specification:'Jost* Medium'"
             id="path422" />
          <path
             d="m 1403.4856,302.17042 v 14.18668 h 5.624 v -14.79468 c 0,-5.624 -2.8373,-9.01867 -8.1067,-9.01867 -3.192,0 -5.5733,1.368 -7.0426,4.104 v -3.59733 h -5.472 v 23.30668 h 5.472 v -14.18668 c 0,-3.14133 2.128,-5.21867 5.2186,-5.21867 2.9387,0 4.3067,1.824 4.3067,5.21867 z"
             style="font-weight:500;-inkscape-font-specification:'Jost* Medium'"
             id="path424" />
          <path
             d="m 1431.7576,280.89041 v 35.46669 h 5.9787 v -13.42668 h 3.6986 l 8.9174,13.42668 h 7.2453 l -10.032,-14.08534 c 4.9147,-1.46934 7.904,-5.21867 7.904,-10.33601 0,-6.63734 -5.016,-11.04534 -12.768,-11.04534 z m 10.6907,5.21867 c 4.104,0 6.84,2.128 6.84,5.928 0,3.80001 -2.736,5.92801 -6.84,5.92801 h -4.712 v -11.85601 z"
             style="font-weight:500;-inkscape-font-specification:'Jost* Medium'"
             id="path426" />
          <path
             d="m 1467.0216,307.23709 v -14.18667 h -5.624 v 14.79467 c 0,5.57334 2.888,9.01867 8.1067,9.01867 3.2427,0 5.5733,-1.41866 7.0427,-4.104 v 3.59734 h 5.472 v -23.30668 h -5.472 v 14.18667 c 0,3.14134 -2.128,5.21867 -5.2187,5.21867 -2.9387,0 -4.3067,-1.92533 -4.3067,-5.21867 z"
             style="font-weight:500;-inkscape-font-specification:'Jost* Medium'"
             id="path428" />
          <path
             d="m 1489.0109,276.83707 v 39.52003 h 5.472 v -39.52003 z"
             style="font-weight:500;-inkscape-font-specification:'Jost* Medium'"
             id="path430" />
          <path
             d="m 1511.6083,316.86376 c 5.3707,0 9.2721,-2.128 11.7041,-6.33333 l -4.7627,-1.87467 c -1.52,2.53333 -3.7494,3.69867 -6.688,3.69867 -3.8,0 -6.1307,-2.33067 -6.536,-6.38401 h 18.1387 c 0,-0.25333 0.051,-0.912 0.051,-1.52 0,-7.448 -4.3066,-11.90667 -11.6533,-11.90667 -7.3974,0 -12.16,4.81334 -12.16,12.16001 0,7.296 4.712,12.16 11.9066,12.16 z m 0.2027,-20.16534 c 3.2427,0 5.472,2.128 5.7253,5.472 h -12.0586 c 0.6586,-3.54667 2.888,-5.472 6.3333,-5.472 z"
             style="font-weight:500;-inkscape-font-specification:'Jost* Medium'"
             id="path432" />
          <path
             d="m 1529.7977,308.70643 -3.192,3.192 c 2.0266,2.68533 5.624,5.168 10.4373,5.168 5.0667,0 8.3094,-2.888 8.3094,-7.296 0,-4.20534 -3.2934,-5.72534 -7.1441,-7.29601 -2.888,-1.11466 -5.0666,-1.92533 -5.0666,-3.69867 0,-1.26666 1.1146,-1.976 2.6853,-1.976 2.28,0 4.6107,1.31734 6.1307,3.09067 l 3.04,-3.24267 c -1.9254,-2.33067 -5.2187,-4.104 -9.0187,-4.104 -4.3067,0 -8.0053,2.128 -8.0053,6.33334 0,4.256 3.4453,5.928 6.6373,7.09333 3.0907,1.11467 5.2187,2.07734 5.2187,4.10401 0,1.52 -1.1654,2.48267 -3.1414,2.48267 -2.3813,0 -4.6106,-1.36801 -6.8906,-3.85067 z"
             style="font-weight:500;-inkscape-font-specification:'Jost* Medium'"
             id="path434" />
        </g>
        <path
           style="fill:none;stroke:#1e1e1e;stroke-width:1.5;stroke-linecap:butt;stroke-linejoin:miter;stroke-miterlimit:4;stroke-dasharray:none;stroke-opacity:1"
           d="M 116.20723,66.113946 419.04695,65.617083"
           id="path25487" />
        <g
           aria-label="BOOMER"
           transform="matrix(0.26458333,0,0,0.26458333,12.209961,-2.5128633)"
           id="text65285"
           style="font-size:264px;line-height:1.25;font-family:'Jost*';-inkscape-font-specification:'Jost*';letter-spacing:0px;word-spacing:0px;white-space:pre;shape-inside:url(#rect65287-3);display:inline;fill:#1e1e1e">
          <path
             d="m 545.992,175.15989 c 0,-25.872 -16.632,-40.656 -39.336,-46.728 17.952,-6.6 28.776,-19.8 28.776,-38.280001 0,-31.416 -24.024,-46.464 -59.136,-46.464 H 420.592 V 228.48789 h 58.872 c 38.808,0 66.528,-16.632 66.528,-53.328 z M 474.184,69.295889 c 17.16,0 29.304,8.976 29.304,24.288 0,15.312001 -12.144,24.288001 -29.304,24.288001 h -22.44 V 69.295889 Z m -22.44,133.584001 v -60.72 h 25.872 c 21.12,0 36.432,9.768 36.432,29.832 0,20.592 -15.312,30.888 -36.432,30.888 z"
             style="font-weight:500;-inkscape-font-specification:'Jost* Medium'"
             id="path333" />
          <path
             d="m 568.4321,136.08789 c 0,55.176 40.392,96.36 95.832,96.36 55.44,0 96.096,-41.184 96.096,-96.36 0,-55.176001 -40.92,-95.568001 -96.096,-95.568001 -54.912,0 -95.832,40.392 -95.832,95.568001 z m 33,0 c 0,-38.016001 26.136,-65.736001 62.832,-65.736001 37.224,0 62.832,27.72 62.832,65.736001 0,38.016 -26.136,65.736 -62.832,65.736 -36.696,0 -62.832,-27.72 -62.832,-65.736 z"
             style="font-weight:500;-inkscape-font-specification:'Jost* Medium'"
             id="path335" />
          <path
             d="m 780.16011,136.08789 c 0,55.176 40.392,96.36 95.832,96.36 55.44,0 96.096,-41.184 96.096,-96.36 0,-55.176001 -40.92,-95.568001 -96.096,-95.568001 -54.912,0 -95.832,40.392 -95.832,95.568001 z m 33,0 c 0,-38.016001 26.136,-65.736001 62.832,-65.736001 37.224,0 62.832,27.72 62.832,65.736001 0,38.016 -26.136,65.736 -62.832,65.736 -36.696,0 -62.832,-27.72 -62.832,-65.736 z"
             style="font-weight:500;-inkscape-font-specification:'Jost* Medium'"
             id="path337" />
          <path
             d="m 1036.7681,116.02389 56.232,95.304 56.496,-95.304 12.672,112.464 h 32.208 l -25.344,-194.040001 -76.032,125.400001 -75.768,-125.400001 -25.34396,194.040001 h 32.20796 z"
             style="font-weight:500;-inkscape-font-specification:'Jost* Medium'"
             id="path339" />
          <path
             d="M 1224.7364,43.687889 V 228.48789 h 112.464 v -27.456 h -81.84 v -58.08 h 76.56 v -26.928 h -76.56 V 71.143889 h 81.84 v -27.456 z"
             style="font-weight:500;-inkscape-font-specification:'Jost* Medium'"
             id="path341" />
          <path
             d="M 1375.4802,43.687889 V 228.48789 h 31.152 v -69.96 h 19.272 l 46.464,69.96 h 37.752 l -52.272,-73.392 c 25.608,-7.656 41.184,-27.192 41.184,-53.856 0,-34.584001 -26.136,-57.552001 -66.528,-57.552001 z m 55.704,27.192 c 21.384,0 35.64,11.088 35.64,30.888001 0,19.8 -14.256,30.888 -35.64,30.888 h -24.552 V 70.879889 Z"
             style="font-weight:500;-inkscape-font-specification:'Jost* Medium'"
             id="path343" />
        </g>
      </g>
    </g>
  </g>
</svg>
